<svg width="778" height="197" viewBox="0 0 778 197" fill="none" xmlns="http://www.w3.org/2000/svg">
<mask id="path-1-outside-1_2523_1139" maskUnits="userSpaceOnUse" x="2" y="1.71631" width="247" height="194" fill="black">
<rect fill="white" x="2" y="1.71631" width="247" height="194"/>
<path d="M220.871 68.4641L220.715 69.0605L220.619 69.5302L220.412 71.0932L220.061 73.3661L220.007 73.9968L219.99 74.1295L219.945 74.4899L219.433 76.1291L219.242 76.8528L219.07 77.8144L218.929 78.8082L220.855 78.8535L222.595 78.8443L223.215 78.8713L224.064 78.9376L223.866 81.0552L225.12 81.5584L226.717 82.1755L225.897 85.1124L225.375 86.827L225.08 87.7209L224.559 89.8937L224.499 90.1346L224.151 91.8418L223.914 93.125L223.305 95.8972L223.173 96.7258L223.043 97.8259L223.159 98.8127L223.125 99.9628L222.97 101.047L222.775 102.17L222.464 103.229L222.091 104.345L221.752 105.308L221.598 105.648L221.28 106.36L220.77 107.373L220.231 108.458L219.859 109.103L219.521 109.776L219.5 109.94L219.343 110.261L218.767 111.059L218.121 112.265L217.841 113.234L217.816 113.417L217.739 114.068L217.415 115.181L217.309 115.649L217.104 115.98L217.515 116.757L217.691 117.073L217.871 117.408L218.129 117.867L218.413 118.518L218.575 118.876L218.806 119.524L219.063 120.556L219.173 121.012L219.586 121.856L220.047 122.904L220.306 123.88L219.886 124.834L219.416 125.526L219.09 126.166L218.48 128.032L218.302 129.129L218.213 130.07L218.096 130.942L218.694 131.15L219.455 131.353L219.985 131.59L220.168 131.755L220.288 131.934L220.346 132.097L219.952 133.208L218.605 132.31L217.924 131.7L217.238 135.306L217.116 136.056L217.11 136.473L218.753 138.503L219.021 138.751L219.323 138.963L219.751 139.37L218.926 139.222L218.502 139.067L217.959 138.88L217.646 138.782L217.163 138.631L217.341 139.646L217.796 139.829L218.042 139.927L218.676 140.2L219.006 140.285L219.319 140.179L219.816 139.658L220.049 139.576L220.361 139.692L220.803 139.776L221.165 139.808L222.047 140.164L222.019 140.022L221.685 139.114L221.61 138.442L221.495 138.257L221.21 138.169L220.397 138.01L220.248 137.913L219.938 137.579L219.825 137.351L219.85 137.135L219.874 136.911L220.249 136.581L220.687 136.64L221.262 136.644L221.645 136.689L221.972 136.615L222.203 136.474L222.36 136.265L222.43 135.923L222.636 135.757L223.019 135.907L223.63 135.787L223.873 135.822L224.296 136.178L224.804 136.485L224.988 136.755L224.899 137.216L225.111 138.509L225.42 139.223L225.679 139.986L225.646 140.389L225.494 141.153L225.292 141.337L224.945 141.44L224.331 141.385L223.704 141.502L223.434 141.442L223.162 141.245L223.283 142.024L223.594 142.691L223.924 143.989L224.153 145.237L224.894 145.648L225.244 146.134L224.987 147.347L225.051 147.52L225.24 147.764L225.548 148.011L225.85 148.165L226.299 148.871L226.905 149.637L228.195 149.666L228.791 149.93L227.451 148.223L227.581 147.779L228.429 147.52L228.877 147.535L229.437 147.69L229.711 147.832L230.427 148.741L230.599 148.959L230.946 149.806L231.902 151.105L232.417 150.798L232.589 150.523L232.843 150.034L233.127 149.659L233.37 149.504L234.048 149.22L234.146 149.163L235.1 148.528L235.219 148.448L235.722 148.262L236.219 148.292L236.534 148.372L236.697 148.383L236.826 148.342L236.969 148.185L237.083 148.145L237.426 148.158L238.589 148.63L239.351 149.265L239.857 149.909L240.254 150.742L240.384 151.225L240.535 152.103L240.528 152.368L240.281 152.917L240.1 153.507L239.952 153.857L239.542 154.621L239.122 155.174L238.909 155.356L238.723 155.685L238.871 155.699L239.093 155.787L239.091 156.216L239.658 156.567L239.909 156.826L240.164 157.164L240.305 157.358L240.614 157.84L240.92 158.408L241.157 159.03L241.192 159.814L241.125 160.94L240.877 165.27L240.577 171.558L240.501 172.296L240.387 172.829L240.327 173.124L235.541 171.193L234.646 170.805L233.17 170.224L230.604 169.274L226.206 167.882L224.14 167.26L222.6 166.734L221.577 166.32L221.031 166.028L219.938 165.306L219.411 164.896L218.019 163.503L213.865 159.237L212.267 157.591L211.41 156.734L210.9 156.279L209.967 155.605L208.424 154.559L205.568 152.782L203.945 152.365L200.527 153.308L199.925 153.507L194.982 154.749L194.716 154.383L193.715 153.789L192.069 152.477L191.514 152.885L191.229 153.154L191.071 153.369L190.295 154.255L189.801 154.87L189.52 155.156L188.971 155.64L187.068 155.133L184.251 154.447L184.401 154.811L184.319 154.826L184.136 154.765L183.784 154.503L183.329 154.44L183.023 154.218L182.873 153.67L182.825 153.68L183.138 154.822L183.066 154.844L183.024 155.305L182.942 155.669L182.756 156.175L182.534 156.552L182.386 156.725L181.688 157.44L181.147 157.912L180.174 158.9L180.218 158.953L180.079 159.104L179.988 159.177L179.354 159.863L177.62 161.537L177.227 161.951L177.273 161.999L177.174 162.134L176.964 162.272L176.431 162.8L176.463 162.835L176.28 162.984L176.202 163.048L176.083 163.217L176.316 163.383L176.447 163.46L174.94 165.08L174.587 165.366L173.65 166.404L173.122 166.5L172.146 167.373L171.842 167.682L171.608 167.727L171.531 167.826L171.432 167.911L170.792 168.551L170.403 168.94L169.816 169.368L169.302 169.644L168.881 169.832L168.66 169.897L167.287 170.098L167.282 170.072L164.465 170.269H164.147L163.114 170.372L160.738 170.551L158.638 170.705L156.831 170.801L156.608 175.109L156.627 176.201L156.644 176.289L156.859 176.285L157.012 176.336L157.032 176.456L156.908 176.73L156.938 176.839L157.084 176.899L157.279 176.796L157.383 177.811V179.1L157.353 180.016L157.421 181.613L157.501 182.321L157.633 182.797L158.221 184.248L158.683 185.328L159.096 186.503L158.068 186.116L157.281 185.942L153.965 185.155L152.388 184.568L151.83 184.314L150.857 183.769L150.784 183.958L150.657 184.189L150.394 184.845L150.04 185.275L149.453 185.892L144.311 186.135L144.717 187.242L144.964 187.993L143.623 188.064L142.321 188.284L141.849 186.788L141.725 186.451L141.645 186.267L141.532 186.153L141.418 186.071L141.066 185.895L140.672 185.727L140.302 185.634L140.461 184.867L140.461 184.715L140 184.638L139.483 184.513L136.418 183.536L134.986 183.141L134.208 183.044L133.845 182.928L132.23 182.52L132.246 182.327L132.006 182.157L130.869 181.814L129.594 181.455L129.083 181.247L128.496 181.075L128.209 181.013L127.527 180.917L127.518 180.891L126.146 180.685L125.398 180.58L124.758 180.419L123.681 180.281L122.081 180.179L120.863 180.072L120.242 179.9L119.541 179.75L118.483 179.482L118.486 179.305L117.542 179.096L117.593 178.887L117.394 178.863L117.134 178.818L116.857 178.829L115.24 178.562L113.872 178.398L112.944 178.223L112.656 178.105L112.493 177.917L111.24 177.137L111.184 177.055L111.131 177.064L110.914 176.956L109.553 176.053L109.004 175.594L108.795 175.451L108.659 175.386L108.328 175.329L107.761 175.163L106.998 174.886L106.783 174.843L106.66 174.827L106.379 174.831L106.112 174.813L105.899 174.757L105.889 174.769L103.041 173.749L98.3949 172.349L97.3626 171.995L95.9065 171.546L94.9467 171.281L94.9455 171.261L93.9304 170.985L93.4199 170.875L93.6703 172.176L93.5841 172.372L93.5893 172.465L92.4152 175.133L92.3123 175.328L90.827 179.601L90.4006 180.731L89.8488 182.476L89.7533 182.299L89.7201 182.19L89.2248 182.219L88.4534 181.837L88.1858 181.69L88.1231 181.759L88.0439 181.805L87.8049 181.743L87.6739 181.688L87.3954 181.502L87.2978 181.565L87.18 181.561L86.6613 183.868L86.4459 185.463L86.3735 186.41L86.4016 186.771L85.945 186.937L85.4205 186.894L84.6882 186.776L84.2321 186.452L83.7875 186.311L83.2521 185.948L82.0907 185.059L81.8093 184.889L81.5984 184.718L81.4077 184.533L81.1446 184.312L80.6845 183.859L80.0992 183.253L79.5339 182.518L79.2663 182.3L78.7538 182.012L78.2042 181.793L78.3208 181.514L78.3426 181.295L78.288 181.117L78.4862 180.619L78.4822 180.441L78.2605 180.307L78.1083 180.131L78.0382 179.613L78.049 179.485L77.9996 178.955L77.9498 178.722L77.9101 178.613L77.8658 178.607L77.7917 178.545L77.7907 178.146L77.7239 178.139L71.9425 176.963L71.715 176.945L70.4376 177.152L70.3593 177.189L70.2319 177.321L70.0532 177.468L69.9275 177.519L69.7184 177.57L69.6298 177.56L67.8567 176.057L67.8763 176.009L67.8033 175.969L67.5919 175.936L67.2495 175.92L66.586 175.822L66.1018 175.689L65.023 175.201L64.5613 174.939L64.0955 174.714L63.849 174.617L62.1619 174.322L62.1666 174.484L60.7483 174.384L60.453 174.402L60.1905 174.461L59.8741 174.565L59.0762 175.074L58.8677 175.175L58.839 175.214L58.083 175.573L57.9326 175.661L57.6551 175.889L57.1393 176.366L57.1065 176.432L56.9606 176.725L56.705 176.958L56.3265 177.147L56.0737 177.333L56.049 177.304L55.8233 177.368L55.7233 177.425L55.628 177.518L55.5067 177.669L55.428 177.705L55.366 177.702L55.1363 177.638L55.007 177.632L54.8135 177.73L54.7285 177.741L54.4137 177.757L54.3694 177.76L54.3447 177.792L54.2832 177.95L54.2368 177.989L54.0547 178.022L53.9243 177.981L53.8869 177.981L53.7456 177.941L53.5227 177.962L53.3871 177.937L53.2298 177.903L52.9954 177.839L52.7863 177.776L52.359 177.665L52.2969 177.652L52.0506 177.664L52.0166 177.67L51.9816 177.73L51.9247 177.851L51.8799 177.853L51.803 177.815L51.7271 177.769L51.696 177.69L51.6737 177.665L51.4767 177.551L51.4049 177.503L51.3147 177.455L51.1189 177.379L50.9287 177.297L50.6311 177.085L50.5985 177.123L50.5542 177.088L50.3858 177.044L50.2198 176.958L50.0706 176.862L49.9292 176.808L49.5444 176.825L49.4266 176.724L49.2807 176.7L49.129 176.668L49.0555 176.719L49.0072 176.811L48.4662 176.677L48.3886 176.589L48.2301 176.46L48.1554 176.448L47.9417 176.551L47.6539 176.571L47.3351 176.595L47.1565 176.635L46.5734 176.654L46.4408 176.667L46.3742 176.706L45.5235 176.884L45.0835 176.95L44.5102 177.082L44.3552 177.103L43.9759 177.192L43.5284 177.254L43.4332 177.242L43.3383 177.247L43.1638 177.281L43.0029 177.394L42.7817 177.471L42.5054 177.472L42.1494 177.615L41.9741 177.63L41.6887 177.682L41.5255 177.776L41.4239 177.805L41.2223 177.952L40.8471 178.147L40.7161 178.251L40.3611 178.451L40.1791 178.596L39.9063 178.726L39.7545 178.819L39.6122 178.972L39.4163 179.144L39.2944 179.211L39.0792 179.402L38.9545 179.624L38.805 179.752L38.5414 179.756L38.2773 179.879L37.6695 180.19L37.2778 180.35L37.0416 180.472L36.7096 180.642L36.4115 180.852L36.3024 180.956L36.0668 181.225L35.7848 181.456L35.4608 181.739L35.3081 181.829L34.7491 182.107L34.5647 182.185L34.4591 182.202L34.3522 182.195L33.6273 182.231L33.3843 182.258L33.2104 182.277L33.0207 182.325L32.7973 182.403L32.5997 182.492L32.4062 182.58L31.8605 182.871L31.78 182.979L31.7312 183.07L31.6658 183.156L31.4658 182.987L31.4273 182.954L31.2751 182.887L31.1482 182.794L31.0529 182.779L30.9126 182.663L30.7932 182.623L30.6283 182.492L30.5801 182.487L30.4164 182.365L30.3445 182.256L30.1722 182.079L30.0085 181.93L29.8844 181.88L29.7949 181.876L29.7437 181.897L29.5978 181.876L29.5047 181.83L29.4008 181.816L29.3094 181.768L29.3118 181.488L29.1831 181.303L29.3387 181.102L29.7219 181.019L30.8685 180.172L31.0879 179.436L31.9684 179.224L32.2993 179.172L33.3395 178.682L35.7239 178.24L37.2944 177.692L38.5604 177.213L39.3508 176.846L39.7051 176.759L40.8167 176.503L41.0207 176.461L41.3515 176.363L41.8885 176.219L42.5319 176.055L42.8513 175.977L43.1764 175.905L43.0495 175.24L43.0833 174.704L43.212 174.211L42.6651 174.04L42.6163 174.02L42.3809 173.912L42.3153 173.884L42.1315 173.834L42.031 173.789L41.9557 173.736L41.9277 173.692L41.8271 173.488L41.7702 173.453L42.6307 172.742L43.0685 171.434L41.3974 171.679L41.1878 171.691L40.961 171.773L40.5949 171.8L40.4669 171.737L40.2803 171.722L39.8097 171.736L39.5077 171.843L38.4398 171.994L38.3829 172.048L38.1607 172.093L37.1968 172.138L36.7361 172.192L36.5 172.235L35.8216 172.49L35.531 172.471L35.1128 172.495L34.8365 172.577L34.7135 172.665L34.1277 172.832L34.0518 172.851L33.7496 172.899L33.1851 172.913L32.93 172.892L32.8663 172.849L32.7479 172.844L32.7198 172.438L32.9036 172.242L33.0173 172.419L33.1023 172.348L33.2177 172.325L33.2891 172.374L33.2602 172.235L33.1707 171.928L32.9345 171.458H32.9863L32.9272 171.278L32.9013 171.056L32.892 170.923L32.8329 170.736L32.6347 170.61L32.6026 170.546L32.4584 170.472L32.4291 170.345L32.4147 170.11L32.3218 169.762L32.1327 169.241L32.0334 169.131L31.7381 168.779L31.764 168.692L31.5664 168.482L31.4814 168.48L31.4239 168.429L31.1436 168.37L31.0418 168.384L30.8954 168.37L30.8001 168.32L30.788 168.283L30.6347 168.264L30.4635 168.147L30.1975 168.094L30.136 168.007L30.1263 167.943L30.0579 167.845L29.9573 167.741L29.9637 167.566L29.9385 167.502L29.9437 167.404L29.9729 167.34L29.9437 167.24L29.9516 167.113L29.7449 166.922L29.6765 166.818L29.6231 166.741L29.5243 166.712L29.464 166.609L29.3974 166.588L29.3031 166.586L29.2158 166.509L29.2509 166.405L29.1756 166.255L29.1521 166.041L29.1061 165.82L29.1187 165.636L29.0584 165.494L28.8695 165.303L28.8849 165.228L28.7621 165.094L28.6357 165.037L28.5639 164.961L28.4823 164.795L28.4398 164.758L28.4289 164.705L28.3945 164.694L28.3698 164.652L28.356 164.58L28.3135 164.575L28.2554 164.524L28.2364 164.436L28.1927 164.377L28.1997 164.313L28.1629 164.193L28.1004 164.079L28.0641 164.049L28.0555 163.99L27.9528 163.818L27.9348 163.651L27.87 163.441L27.8338 163.112L27.7287 162.966L27.6304 162.863L27.5678 162.864L27.531 162.805L27.2571 162.67L27.1744 162.606L27.0847 162.504L26.8199 162.423L26.3759 162.267L26.5425 161.863L26.7309 160.823L27.3812 160.465L27.9458 159.762L27.901 159.703L28.0061 159.635L28.0532 159.553L28.1469 159.523L28.1854 159.544L28.2364 159.501L28.2566 159.416L28.2967 159.429L28.3451 159.411L28.3732 159.324L28.7127 159.145L28.7764 159.076L28.8246 159.175L28.9809 159.268L29.2015 159.253L29.6041 159.199L30.3107 159.122L30.4916 159.102L30.6501 159.003L31.0005 158.83L31.3055 158.768L31.5003 158.571L31.6968 158.389L31.7794 158.248L31.8053 158.121V157.905L31.8277 157.576L31.9024 157.335L31.9943 157.259L32.5854 157.542L32.6584 157.629L32.7094 157.656L32.7456 157.732L32.8392 157.733L32.8479 157.767L32.9294 157.771L32.9598 157.752L33.042 157.766L33.0897 157.818L33.0811 157.851L33.1357 157.888L33.1373 157.922L33.246 157.953L33.3021 157.921L33.3671 157.915L33.4488 158L33.5389 158.125L33.6055 158.155L33.6262 158.131L33.7008 158.162L33.7267 158.122L33.7859 158.133L33.8336 158.115L33.8812 158.147L33.902 158.193L33.9765 158.191L34.0192 158.297L34.0518 158.334L34.2609 158.406L34.3155 158.32L34.3735 158.293L34.3413 158.154L34.3568 157.963L34.2919 157.883L34.1759 157.811L34.1742 157.397L22.6394 155.364L21.4526 155.991L19.5903 156.559L18.6886 154.436L19.1171 150.629L18.3888 147.957L16.9515 145.864L13.4567 144.339L11.6239 143.607L11.4079 143.337L11.2632 143.254L10.6404 142.884L10 141.685L13.158 139.51L13.3494 139.277L13.4867 136.439L14.2397 135.516L14.8675 134.853L16.6655 133.362L18.2307 130.564L20.502 128.509L22.4062 124.315L22.9203 121.731L22.9323 119.548L23.702 118.356L24.0747 116.605L24.9329 114.319L24.6309 114.195L24.5833 114.184L24.4981 114.179L24.404 114.207L24.1362 114.251L24.0439 114.258L23.9662 114.251L23.8381 114.181L23.7842 114.147L23.6636 114.015L23.5998 113.999L23.5838 113.967L23.5355 113.95L23.5286 113.897L23.4988 113.892L23.4441 113.829L23.3879 113.798L23.3213 113.791L23.2873 113.755L23.13 113.684L23.0558 113.686L22.9266 113.635L22.5848 113.397L22.424 113.205L22.3688 113.165L22.3097 113.068L22.1994 113L22.1799 112.944L22.1402 112.899L22.0977 112.881L22.0156 112.88L21.9753 112.855L21.9225 112.749L21.8611 112.615L21.8312 112.553L21.815 112.511L21.8024 112.484L21.7852 112.444L21.7496 112.175L21.8593 112.172L21.9793 112.153L22.5716 111.985L22.3671 111.547L22.3465 111.395L22.169 111.084L22.4354 111.187L22.687 111.169L22.8495 111.131L23.0926 111.064L23.3711 110.956L23.632 110.821L23.8209 110.686L24.0081 110.511L24.1075 110.412L24.2977 110.219L24.4275 110.029L24.5769 109.798L24.7291 109.522L24.9985 108.997L25.0185 108.893L25.9083 108.165L26.2352 107.936L26.0962 107.732L25.9739 107.6L25.867 107.509L25.7699 107.28L25.7344 107.151L25.6832 107.106L25.6545 106.925L25.6085 106.916L25.5453 106.745L25.4701 106.728L25.3683 106.732L25.2834 106.696L25.0956 106.561L25.0398 106.567L24.9525 106.517L24.7934 106.5L24.671 106.362L24.5465 106.335L24.3994 106.284L24.3236 106.387L24.2994 106.456L24.2581 106.482L24.1714 106.457L24.0961 106.407L23.9456 106.358L23.8909 106.308L23.8595 106.221L23.7451 106.089L23.714 106.027L23.7296 105.95L23.6893 105.879L23.5854 105.763L23.5113 105.753L23.4757 105.77L23.3768 105.778L23.1679 105.693L22.6295 105.559L22.4809 105.537L22.3706 105.478L22.0724 105.467L21.9259 105.512L21.8984 105.485L21.7656 105.448L21.6772 105.473L21.4274 105.373L21.3355 105.325L21.2274 105.265L21.1557 105.218L21.0815 105.176L21.0074 105.119L20.8685 105.093L20.8396 105.07L20.8369 105.023L20.8489 104.985L20.8161 104.971L20.7058 105.011L20.5497 104.92L20.5341 104.868L20.3963 104.873L20.305 104.825L20.2882 104.718L20.1475 104.672L20.135 104.559L20.0619 104.522L19.9763 104.438L19.8449 104.406L19.7421 104.295L19.7162 104.211L19.6507 104.113L19.3739 103.947L19.3215 103.861L19.2962 103.776L19.2911 103.666L19.2096 103.599L19.2681 103.558L19.2383 103.446L19.2159 103.407L19.0809 102.917L18.9837 102.876L18.9126 102.515L18.8126 102.478L18.6989 102.389L18.7333 102.312L18.7718 102.177L18.7161 102.169L18.6633 102.042L18.5236 101.949L18.3461 101.555L18.3554 101.434L18.4548 101.426L18.4892 101.328L18.4151 101.181L18.4932 101.064L18.3979 100.822L18.4042 100.616L18.2044 100.163L18.1394 100.117L18.0998 100.009L17.9844 99.911L17.9791 99.7622L17.9631 99.6881L17.7178 99.2309L17.8557 98.9633L18.3289 98.503L18.3858 98.4274L18.5977 98.25L18.708 98.03L18.8104 97.9197L18.9056 97.7765L18.9987 97.7048L19.1337 97.6448L19.1774 97.6468L19.248 97.6135L19.5818 97.2608L19.6122 96.7845L19.3169 96.3129L19.0011 96.1652L18.8396 96.1246L18.3307 95.912L18.3352 95.8844L17.7069 95.8569L17.3541 95.8682L17.0831 95.8333L16.7683 95.8314L16.2036 95.7719L15.8773 95.8053L15.1668 96.0102L14.9009 96.086L14.6062 96.1154L13.972 96.0492L13.5016 95.9727L12.8042 95.9947L12.4872 95.9601L12.1413 96.1996L11.9518 96.0385L12.1218 95.5006L12.258 95.3406L12.3574 95.287L12.4463 95.1537L12.4556 95.0968L12.6726 94.8344L12.8003 94.7603L12.9232 94.7189L13.0881 94.6206L13.2523 94.4789L13.3051 94.4089L13.4154 94.3639L13.4699 94.3793L13.5371 94.3755L13.6061 94.3518L13.7055 94.3836L13.9393 94.418L13.9415 94.3886L14.1403 94.2973L14.1989 94.3024L14.2708 94.3715L14.3339 94.3581L14.4149 94.257L14.6113 94.1423L14.7969 94.1623L14.9043 94.064L15.0106 94.0814L15.0301 93.9686L15.18 93.9221L15.1893 93.8308L15.2397 93.7965L15.3116 93.7883L15.3098 93.7142L15.346 93.6717L15.4535 93.6596L15.5539 93.5817L15.6625 93.5551L15.9796 93.287L16.0376 93.2035L16.0668 93.0857L16.1226 93.0432L16.3121 92.7101L16.5414 92.5469L16.6487 92.5935L16.6809 92.5022L16.7643 92.3815L16.8147 92.3749L16.8321 92.3046L16.8999 92.2196L16.9009 92.0817L16.9343 91.9743L16.975 91.8972L17.063 91.7958L17.059 91.748L17.0877 91.6418L17.1531 91.5543L17.2284 91.5049L17.2984 91.4199L17.3887 91.3924L17.3944 91.2729L17.5478 91.1949L17.6792 91.0517L17.866 90.9072L17.9366 90.923L17.9775 90.8622L18.0342 90.8394L18.0957 90.7973L18.1589 90.7985L18.2744 90.6712L18.3807 90.6669L18.5024 90.5522L18.5105 90.5159L18.4985 90.4539L18.5438 90.3587L18.7012 90.1754L18.8396 90.1806L19.2452 90.2625L19.3181 90.2937L19.6375 90.8572L20.0947 91.3167L20.0803 90.776L19.9913 90.2338L19.9132 90.0597L19.8057 89.9025L19.6444 89.7527L19.7035 89.5944L19.7662 89.5365L19.8575 89.4871L19.9316 89.3999L19.9793 89.3642L20.0459 89.3675L20.2303 89.4637L20.336 89.4555L20.3681 89.3625L20.34 89.3414L20.3439 89.3148L19.6099 88.8868L19.4794 88.8558L19.4824 88.8083L19.4065 88.8007L18.2469 87.9294L16.8756 87.0868L16.9044 86.7908L16.893 86.4668L16.8406 86.3721L16.9371 86.2235L16.9481 86.1557L16.8367 86.1527L16.7568 86.2605L16.6367 86.0413L16.6534 85.9573L16.6327 85.9379L16.5856 85.9297L16.5459 85.9505L16.5196 85.923L16.5224 85.7763L16.6448 85.5041L16.7637 85.3193L16.7815 85.2007L16.9153 84.8797L16.8861 84.7988L16.7649 84.7418L16.6258 84.72L16.3886 84.5536L16.5098 84.3989L16.4977 84.2323L16.269 84.2364L16.2318 84.1911L16.2565 84.1289L16.3254 84.0789L16.4576 84.0514L16.5402 84.068L16.6908 84.0602L16.8021 84.0171L16.8297 83.9626L16.8119 83.8879L16.8533 83.7626L16.9452 83.6563L17.156 83.356L17.2112 83.1645L17.2128 83.0778L17.1881 83.0169L17.1163 82.9519L17.2416 82.7096L17.2869 82.6768L17.2571 82.6012L17.141 82.5291L17.071 82.2759L17.0928 82.0277L17.1922 81.7343L17.276 81.6005L17.349 81.3552L17.3369 81.226L17.3231 81.0644L17.3944 80.8803L17.3851 80.7214L17.3053 80.7009L17.163 80.7573L17.0515 80.7297L17.0118 80.5864L17.0141 80.4888L17.0474 80.37L17.1687 80.3798L17.195 80.3494L17.1658 80.2668L17.0416 80.099L17.1646 79.9443L17.3272 79.8496L17.3875 79.6636L17.2181 79.5562L17.0377 79.4764L16.9193 79.173L16.955 78.9376L17.0102 78.7044L16.9361 78.6507L16.8631 78.587L16.8268 78.4498L16.9922 77.66L17.0653 77.44L17.1353 77.3297L17.2474 77.2402L17.3824 77.1711L17.4484 77.1102L17.484 76.9862L17.5225 76.7977L17.5891 76.6611L17.7253 76.5621L17.8562 76.2945L17.885 76.1901L17.882 76.077L17.9372 75.8688L17.9923 75.7684L18.1222 75.4197L18.2285 75.0819L18.4404 74.5875L18.3083 74.4652L18.2198 74.3162L18.3382 74.1536L18.3358 74.0957L18.2611 73.9964L18.2364 73.8396L18.2789 73.6507L18.3358 73.2979L18.2652 73.1312L18.2819 73.0238L18.4295 72.674L18.4582 72.5981L18.5507 72.5225L18.5685 72.4575L18.6293 72.415L18.9171 72.0455L19.0442 71.9687L19.1539 71.8211L19.3428 71.6911L19.4244 71.5511L19.4628 71.3001L19.5674 71.168L19.6737 71.1058L19.6927 71.0273L19.7725 70.9722L19.8138 70.9601L19.8828 70.9058L19.8965 70.7947L19.9919 70.6992L19.9603 70.4334L20.0332 70.2419L20.1872 70.026L20.2728 69.9265L20.387 69.8949L20.4647 69.8369L20.5319 69.7484L20.5473 69.4924L20.6352 69.4414L20.7317 69.4606L20.8351 69.2145L20.9092 69.1368L21.1792 69.0804L21.2551 69.0282L21.3187 68.8943V68.8255L21.3849 68.7955L21.5761 68.8507L21.7152 68.7791L21.7978 68.6589L21.8162 68.4729L21.8891 68.4244L22.1603 68.4222L22.2609 68.3832L22.2815 68.2164L22.305 68.1613L22.4882 68.0568L22.5493 67.98L22.571 67.8638L22.6617 67.784L22.8645 67.7909L22.9392 67.7454L22.9886 67.5928L23.4102 67.4619L23.4498 67.3428L23.4005 67.1958L23.4268 67.1102L23.4804 67.0797L23.6073 67.0837L23.6636 67.1242L23.8731 67.1184L23.9306 67.0303L23.9105 66.8926L23.9514 66.7489L23.9059 66.6227L23.7848 66.4176L23.767 66.3527L23.6883 66.1747L23.7354 66.0592L23.683 65.9929L23.5727 65.9556L23.5274 65.9131L23.4458 65.8579L23.4516 65.5284L23.4958 65.3015L23.4723 65.0781L23.4171 64.9883L23.432 64.9056L23.3632 64.8328L23.4941 64.7105L23.497 64.6109L23.4498 64.5875L23.3758 64.5887L23.3602 64.5408L23.3993 64.4305L23.497 64.3961L23.6636 64.1945L23.7709 63.9292L23.7354 63.8614L23.7434 63.7567L23.7709 63.7292L23.8646 63.7372L23.9198 63.6685L23.8152 63.4203L23.8921 63.2966L23.8893 63.2681L23.9255 63.2009L23.9243 63.0576L23.902 62.9813L23.9283 62.7741L23.9099 62.6343L23.934 62.5224L23.9031 62.4565L23.899 62.3655L23.8474 62.2927L23.8261 62.2197L23.679 62.0714L23.6221 61.9646L23.6682 61.8193L23.7498 61.7596L23.7951 61.752L23.8445 61.7187L23.8502 61.6598L23.9146 61.6515L23.937 61.5383L24.015 61.3926L23.9996 61.3099L24.0198 61.2557L24.022 61.191L24.0978 61.1155L24.1328 61.0483L24.2506 60.9444L24.3052 60.9317L24.3431 60.8732L24.404 60.8384L24.4269 60.7895L24.4712 60.7613L24.5246 60.659L24.5665 60.6256L24.8226 60.5021L24.8463 60.4701L24.879 60.4644L24.9112 60.4349L24.9726 60.4253V60.3426L24.9922 60.3068L25.1053 60.2656L25.3294 60.1766L25.3448 60.1471L25.6672 60.0577L25.8516 60.0856L26.1157 60.2235L26.4299 60.4573L26.6011 60.6888L27.4828 61.5596L27.6425 61.7418L28.1497 62.3316L28.4663 62.6315L28.9792 62.9129L29.1084 63.0393L29.2274 63.3397L29.1756 63.5404L29.0503 63.7039L29.0424 63.8389L29.1171 63.9051L29.5634 63.8055L29.6707 63.8069L29.7988 63.8721L29.9712 64.0014L30.1573 64.0468L30.302 64.0579L30.4795 64.2743L31.0608 64.4202L32.1465 64.9699L32.6135 65.0084L33.0833 65.3382L34.4269 67.0337L36.0824 68.1116L35.8877 68.3344L35.864 68.4192L35.9043 68.5091L35.9968 68.5542L36.388 68.586L36.8578 69.0035L38.1158 69.8524L38.9809 71.0966L39.7662 71.4817L40.2475 71.9083L40.3801 72.288L40.5202 72.3019L40.7718 72.3678L41.1671 72.4908L41.8081 72.5396L41.8978 72.6172L42.05 72.6293L43.2074 73.1242L43.4527 73.1887L43.6009 73.2134L43.5618 73.3347L43.8347 73.5292L44.0259 73.6076L44.4252 73.8608L44.6026 73.952L44.5831 74.1796L44.4465 74.4024L44.3178 74.7119L44.1955 75.02L43.8387 75.6822V76.1658L43.4452 76.5121L43.3033 77.0202L43.2276 77.7626L42.5422 78.3431L42.4113 78.8649L42.5164 79.9437L42.6756 80.6153L42.8404 80.8733L42.9558 80.9411L42.9874 80.9823L42.9932 81.0761L43.2379 81.2885L43.4464 81.308L43.5021 81.3493L43.5607 81.3426L43.5756 81.4076L43.9686 81.5568L43.9662 81.5845L43.9145 81.5946L43.8737 81.7146L43.8915 81.8418L43.9352 81.9162L44.1075 81.9239L44.1288 82.0059L44.2063 82.0828L44.2649 82.1368L44.2781 82.2186L44.3809 82.3288L44.4746 82.3508L44.5946 82.3466L44.6423 82.3672L44.6951 82.4166L44.7795 82.5868L44.8313 82.6274L44.8428 82.7228L44.8876 82.7722L45.3764 82.3672H45.6567L46.1162 82.3275L46.6287 82.1549L46.9353 82.2341L47.4156 82.2259L47.878 82.119L48.376 81.8737L48.6839 81.7683L49.0572 81.5598L49.897 81.0416L50.1975 81.1047L50.4651 80.9799L51.3158 81.0117L51.7822 81.0529L52.4836 81.0951L52.6244 81.2358L53.1988 81.3357L53.2942 81.4027H53.695L53.6887 81.2207L53.6634 81.0732L53.6549 80.8847L53.6181 80.497L53.6158 80.254L53.8042 80.3607L53.9289 79.9846L53.799 78.7341L53.8065 78.6871L53.8444 78.6336L53.8869 78.5889L54.0105 78.4998L54.2218 78.3316L54.4791 78.0235L54.6015 77.8201L54.644 77.1942L54.721 76.6646L54.7744 76.2792L54.837 76.1349L54.9214 75.9758L55.1478 76.0419L55.3804 76.2229L55.5608 76.2302L55.5648 76.1508L55.582 76.1388L55.6664 76.1533L55.6555 76.2313L55.8607 76.2424L56.265 76.4795L56.5586 75.8964L56.8279 76.0447L56.9732 75.8948L57.0422 75.8781L57.2242 75.6869L57.3822 75.4606L57.4126 75.2888L57.4247 75.1113L57.535 75.1037L57.6253 75.1785L57.685 75.3165L57.7142 75.2507L57.8073 75.3135L57.8917 75.286L57.8871 74.9706L58.299 74.7855L58.5833 74.533L58.6356 74.4123L58.7092 74.3492L58.758 74.1105L58.793 74.0186L58.6706 73.8057L58.4609 73.2748L58.4289 73.252V73.1462L59.1497 72.6888L59.4834 72.4683L59.4956 72.4224L60.1688 71.9203L60.8776 71.3666L61.1699 71.2364L61.5278 71.01L61.7059 70.8916L61.765 70.8279L61.7788 70.4406L61.8678 70.1421L61.8753 70.0518L61.5663 69.5027L61.4577 69.3523L61.2446 69.0817L61.1389 69.0238L60.792 68.9758L60.036 69.0238L59.5691 68.8002L59.0486 68.6285L58.7902 68.6669L58.1318 68.5445L58.0433 68.2035L58.5742 68.1053L59.6213 68.1632L60.7754 68.2397L61.4853 68.0028L61.8174 67.8207L62.2348 67.4837L62.8444 67.0937L63.4871 66.8243L64.1097 66.5888L64.737 66.3654L65.1736 66.4214L65.4889 66.4766L65.7917 66.4573L66.0749 66.5013L66.6469 66.6836L67.0266 66.6899L67.3954 66.5888L67.8148 66.2623L68.087 66.1786L68.4759 65.9642L68.6459 65.8294L69.2594 65.7132L69.4966 65.6812L69.9838 65.5985L70.1227 65.4669L70.6064 65.2216L70.7224 65.1509L70.7506 65.0244L70.7356 64.8016L70.7781 64.6258L71.02 64.0373L71.5128 63.5001L71.6628 63.3863L71.8551 63.3048L71.969 63.2317L72.2406 62.9344L72.3629 62.7268L72.8938 62.2255L73.0052 62.1681L73.3865 62.065L73.7053 61.9514L74.4291 61.7929L74.7898 61.3264L75.0863 60.8079L75.3068 60.5544L75.5136 60.3091L75.6107 60.2869L75.5895 59.775L74.6864 58.8416L74.6198 58.7613L73.9702 57.8765L73.595 57.9249L73.2895 57.9259L72.7196 58.1328L72.4342 58.1822L71.8632 58.1315L71.3325 58.1251L71.1487 58.0634L70.9649 57.8719L70.9062 57.684L70.8367 57.5078L70.7931 57.2781V57.2147L70.8574 57.0609L71.0746 56.9126L71.4474 56.6955L71.6788 56.5038L71.8644 56.2585L71.9213 56.1026L71.9666 55.826L72.1131 55.4776L72.2091 55.1049L72.3095 54.8987L72.4279 54.6815L72.6244 54.5243L72.8179 54.4426L73.158 54.3542L73.5761 54.1893L73.6899 54.0838L73.795 53.9676L73.8863 53.8322L73.9696 53.7751L74.1207 53.7378L74.4923 53.7219L75.1564 53.5064L75.4235 53.3869L75.5355 53.2532L75.6974 53.1284L75.8249 53.0659L76.2087 53.1284L77.0789 53.1898L77.4661 53.225L78.0795 52.9493L78.4024 52.8706L78.6321 52.4346L78.8837 52.2289L79.0916 52.1956L79.2365 52.144L79.2473 52.0762L80.0152 52.2289L79.7522 52.6206L80.2668 52.7918L80.4633 52.9166L81.1434 53.0973L81.4232 53.2831L81.7035 53.4214L82.2085 53.4985L82.4726 53.4434L82.8598 53.1572L83.2551 52.921L83.938 52.8299L84.3722 52.5131L84.7841 52.183L85.2201 51.8083L85.3837 51.7595L85.4768 51.7298L85.8215 51.5349L86.2368 51.5805L87.5723 51.4717L87.9107 51.1698L88.2524 50.5888L88.5293 50.1172L88.5591 50.0974L88.8378 49.9142L88.9222 49.6171L89.31 49.1149L89.4788 48.7783L89.6138 48.6429L90.3192 48.2176L90.5346 48.1482L90.6145 48.0747L90.9361 47.9454L91.1533 47.7847L91.5375 47.8272L91.7219 47.8025L92.0814 47.7968L92.3698 47.8709L92.5461 47.9353L92.7805 48.0557L92.9712 48.1771L93.1017 48.2522L93.7197 48.4367L94.2476 48.5235L94.6961 48.5803L95.057 48.6453L95.2632 48.7004L95.4681 48.7197L95.7594 48.6928L95.8381 48.6917L95.9749 48.6566L96.0978 48.5704L96.3006 48.4285L96.4832 48.3265L96.655 48.1562L96.6912 48.1471L96.7601 47.9347L96.7837 47.5211L96.8858 47.0914L97.0622 46.7738L97.2689 46.4613L97.2966 46.3985L97.3424 46.1808L97.4993 46.0028L97.5488 45.9085L97.5815 45.7312L97.7365 45.5156L97.8751 45.4059L98.4058 45.2031L98.6224 45.1655L98.8451 45.1916L99.079 45.22L100.485 44.5868L105.044 41.6923L105.036 41.6574L105.058 41.6391L105.049 41.6179L105.122 41.5699L105.098 41.5224L105.438 41.2972L104.8 40.3074L104.658 40.1134L104.603 40.0753L104.427 39.7981L104.419 39.7401L104.26 39.5098L104.192 39.4207L103.977 39.1674L103.739 38.9748L103.527 38.7151L103.122 38.3172L107.167 36.9921L110.311 42.9549L111.738 43.2543L114.913 43.946L115.991 44.1946L116.704 44.5081L117.509 44.9005L117.528 45.0269L117.868 45.1062L118.126 45.2853L118.222 45.2447L118.542 45.2355L118.58 45.2037L118.798 45.2377L118.828 45.1331L118.996 45.1224L119.052 45.1378L120.293 44.7024L119.482 44.3765L119.197 44.1114L119.1 44.0182L118.676 43.3635L118.318 42.5052L118.144 41.8171L118.067 41.4214L118.052 41.0297L118.12 40.6624L118.272 40.1812L118.367 40.0386L118.578 39.8887L119.132 39.644L119.531 39.4895L119.878 39.3987L120.334 39.3304L120.726 39.4102L120.98 39.4058L121.781 39.2426L122.208 39.111L122.75 39.0064L123.301 38.9927L123.745 39.0333L124.302 38.9725L124.542 38.8863L124.818 38.5073L125.018 38.0059L125.172 37.5521L125.196 37.3109L125.208 37.2552L125.248 36.5192L125.236 36.2761L125.143 35.7276L125.136 35.6207L124.898 34.9449L124.054 33.3047L123.893 33.0418L123.528 32.5743L123.199 32.2133L123.705 31.381L123.732 31.2697L124.454 29.9181L125.016 28.6635L125.681 26.8691L125.805 26.8945L125.937 26.9236L126.293 26.9398L126.563 26.996L127.081 27.1414L127.311 27.232L127.577 27.309L127.736 27.3365L128.362 27.4861L128.594 27.5045L128.75 27.4997L128.917 27.3521L129.142 27.2254L129.428 27.1005L129.242 26.9236L128.764 26.5947L128.353 26.37L128.064 26.2454L128.099 25.9913L128.147 25.8778L128.178 25.8553L128.221 25.7006L128.217 25.6644L128.305 25.5422L128.301 25.513L128.614 25.1908L128.276 24.8345L127.765 24.1722L127.579 23.9722L127.622 23.8045L127.715 23.6298L127.917 23.0924L127.949 22.573L128.038 22.3006L127.807 21.0497L127.226 19.4751L127.326 18.5269L126.596 18.409L126.483 17.983L126.128 17.3286L126.142 16.8266L126.107 15.7725L126.038 15.3941L126.293 14.8706L126.572 14.22L126.781 13.596L127.115 13.2584L127.919 12.4611L128.612 11.716L128.824 11.5398L129.145 11.4111L129.436 11.3673L129.746 11.4209L130.055 11.4806L131.271 11.8963L131.282 11.8142L131.482 11.2542L131.688 10.7813L130.938 10.7437L130.934 10.1558L132.405 10.2512L132.217 8.98482L132.708 9.04658L133.272 9.03129L133.628 9.00894L134.189 8.82439L134.659 8.80674L134.718 9.64581L134.653 11.1198L134.26 11.0784L134.038 11.7138L134.453 11.9176L134.957 12.1692L135.734 12.6131L135.943 12.7064L136.46 12.8839L136.909 13.0625L139.024 13.8723L139.153 13.9056L139.369 13.274L139.526 12.77L139.935 11.6567L140.989 11.2282L143.429 10.1923L145.011 9.58376L146.268 9.17143L147.3 8.83836L147.878 8.75498L148.357 8.71631L149.102 8.72675L149.596 8.79336L150.207 8.90071L150.719 9.09658L151.46 9.29098L151.972 9.46141L153.05 10.2255L153.836 10.7297L154.513 11.1651L155.657 11.8551L157.535 12.8981L159.532 13.865L159.695 14.3274L159.826 15.2303L159.849 15.8787L159.704 16.7547L159.591 18.1478L159.727 20.3884L160.031 20.9969L160.575 22.9022L161.001 25.5153L161.028 26.4682L161.026 27.3505L160.995 27.6703L160.976 28.7025L161.011 29.8073L160.99 30.8097L161.035 31.6673L161.058 31.9255L161.056 33.6907L161.044 34.7109L161.04 34.7795L161.083 35.7254L162.505 36.7024L163.34 37.3148L163.798 37.678L164.896 38.467L165.59 38.9345L165.88 39.1746L167.972 40.604L169.166 41.5932L170.409 42.369L170.849 42.7211L171.656 43.2572L172.362 43.7051L172.899 44.0321L172.892 44.0508L173.049 44.3392L173.232 44.4382L173.246 44.4198L173.626 44.6628L174.196 45.1803L174.505 45.3819L174.702 45.4985L176.783 47.2143L178.908 48.6091L179.704 49.3649L180.932 49.8865L180.886 50.168L181.144 50.3131L181.567 50.5729L181.585 50.5578L182.381 51.075L183.116 51.4741L183.461 51.5901L184.239 51.7602L184.933 51.9573L184.847 51.372L184.886 51.0228L184.985 50.3857L185.165 49.712L185.677 48.6072L186.081 47.4456L186.206 46.9668L186.246 46.7243L186.262 46.4522L186.242 46.2591L186.036 45.5243L185.979 45.2428L185.899 44.9414L185.768 44.6667L185.782 44.583L185.829 44.4805L185.87 44.1361L185.927 43.8251L185.906 43.5238L185.903 43.1106L185.729 43.0459L185.78 42.8009L185.812 42.5844L185.854 42.4077L185.77 42.38L185.526 42.2799L185.43 41.8045L185.335 41.0728L185.242 40.7619L185.199 40.5532L185.072 40.0564L185.058 39.5573L184.82 37.8018L184.754 36.8967L184.772 36.3298L184.838 35.6668L185.019 34.6259L184.922 34.3113L184.986 34.3263L186.111 34.5724L186.431 34.6248L186.871 34.6295L190.549 34.974L192.03 35.0078L193.101 35.0833L193.827 35.2269L193.652 35.7513L194.915 36.2172L197.109 37.0742L197.253 37.1246L197.32 37.1362L197.734 37.3175L198.38 37.548L198.878 37.8409L200.45 38.7732L200.674 38.8572L203.62 39.89L203.425 40.6176L204.612 41.3288L204.235 42.6206L203.392 45.0659L202.787 45.4754L202.654 45.5756L202.086 46.6036L201.932 46.9271L201.068 48.5451L200.784 49.2115L200.464 50.0553L200.184 50.8763L199.803 51.8083L200.48 51.9446L201.178 52.1668L201.334 52.2461L202.235 52.909L203.122 53.5226L203.83 53.9646L203.831 54.0055L204.15 54.0735L203.412 56.8708L207.102 57.6174L207.549 58.5542L208.065 59.7199L208.586 59.8819L208.722 60.0283L209.481 60.3499L210.254 60.6526L211.135 60.8969L212.003 61.203L213.205 61.527L213.581 61.6274L214.966 61.9054L215.209 61.2054L216.004 60.7962L216.683 60.5046L217.206 60.2977L217.649 60.181L218.45 60.0812L218.46 60.0253L219.263 60.1718L220.545 60.4431L222.035 60.8038L223.349 61.1191L222.615 63.0447L221.817 65.4128L220.871 68.4641Z"/>
</mask>
<path d="M220.871 68.4641L220.715 69.0605L220.619 69.5302L220.412 71.0932L220.061 73.3661L220.007 73.9968L219.99 74.1295L219.945 74.4899L219.433 76.1291L219.242 76.8528L219.07 77.8144L218.929 78.8082L220.855 78.8535L222.595 78.8443L223.215 78.8713L224.064 78.9376L223.866 81.0552L225.12 81.5584L226.717 82.1755L225.897 85.1124L225.375 86.827L225.08 87.7209L224.559 89.8937L224.499 90.1346L224.151 91.8418L223.914 93.125L223.305 95.8972L223.173 96.7258L223.043 97.8259L223.159 98.8127L223.125 99.9628L222.97 101.047L222.775 102.17L222.464 103.229L222.091 104.345L221.752 105.308L221.598 105.648L221.28 106.36L220.77 107.373L220.231 108.458L219.859 109.103L219.521 109.776L219.5 109.94L219.343 110.261L218.767 111.059L218.121 112.265L217.841 113.234L217.816 113.417L217.739 114.068L217.415 115.181L217.309 115.649L217.104 115.98L217.515 116.757L217.691 117.073L217.871 117.408L218.129 117.867L218.413 118.518L218.575 118.876L218.806 119.524L219.063 120.556L219.173 121.012L219.586 121.856L220.047 122.904L220.306 123.88L219.886 124.834L219.416 125.526L219.09 126.166L218.48 128.032L218.302 129.129L218.213 130.07L218.096 130.942L218.694 131.15L219.455 131.353L219.985 131.59L220.168 131.755L220.288 131.934L220.346 132.097L219.952 133.208L218.605 132.31L217.924 131.7L217.238 135.306L217.116 136.056L217.11 136.473L218.753 138.503L219.021 138.751L219.323 138.963L219.751 139.37L218.926 139.222L218.502 139.067L217.959 138.88L217.646 138.782L217.163 138.631L217.341 139.646L217.796 139.829L218.042 139.927L218.676 140.2L219.006 140.285L219.319 140.179L219.816 139.658L220.049 139.576L220.361 139.692L220.803 139.776L221.165 139.808L222.047 140.164L222.019 140.022L221.685 139.114L221.61 138.442L221.495 138.257L221.21 138.169L220.397 138.01L220.248 137.913L219.938 137.579L219.825 137.351L219.85 137.135L219.874 136.911L220.249 136.581L220.687 136.64L221.262 136.644L221.645 136.689L221.972 136.615L222.203 136.474L222.36 136.265L222.43 135.923L222.636 135.757L223.019 135.907L223.63 135.787L223.873 135.822L224.296 136.178L224.804 136.485L224.988 136.755L224.899 137.216L225.111 138.509L225.42 139.223L225.679 139.986L225.646 140.389L225.494 141.153L225.292 141.337L224.945 141.44L224.331 141.385L223.704 141.502L223.434 141.442L223.162 141.245L223.283 142.024L223.594 142.691L223.924 143.989L224.153 145.237L224.894 145.648L225.244 146.134L224.987 147.347L225.051 147.52L225.24 147.764L225.548 148.011L225.85 148.165L226.299 148.871L226.905 149.637L228.195 149.666L228.791 149.93L227.451 148.223L227.581 147.779L228.429 147.52L228.877 147.535L229.437 147.69L229.711 147.832L230.427 148.741L230.599 148.959L230.946 149.806L231.902 151.105L232.417 150.798L232.589 150.523L232.843 150.034L233.127 149.659L233.37 149.504L234.048 149.22L234.146 149.163L235.1 148.528L235.219 148.448L235.722 148.262L236.219 148.292L236.534 148.372L236.697 148.383L236.826 148.342L236.969 148.185L237.083 148.145L237.426 148.158L238.589 148.63L239.351 149.265L239.857 149.909L240.254 150.742L240.384 151.225L240.535 152.103L240.528 152.368L240.281 152.917L240.1 153.507L239.952 153.857L239.542 154.621L239.122 155.174L238.909 155.356L238.723 155.685L238.871 155.699L239.093 155.787L239.091 156.216L239.658 156.567L239.909 156.826L240.164 157.164L240.305 157.358L240.614 157.84L240.92 158.408L241.157 159.03L241.192 159.814L241.125 160.94L240.877 165.27L240.577 171.558L240.501 172.296L240.387 172.829L240.327 173.124L235.541 171.193L234.646 170.805L233.17 170.224L230.604 169.274L226.206 167.882L224.14 167.26L222.6 166.734L221.577 166.32L221.031 166.028L219.938 165.306L219.411 164.896L218.019 163.503L213.865 159.237L212.267 157.591L211.41 156.734L210.9 156.279L209.967 155.605L208.424 154.559L205.568 152.782L203.945 152.365L200.527 153.308L199.925 153.507L194.982 154.749L194.716 154.383L193.715 153.789L192.069 152.477L191.514 152.885L191.229 153.154L191.071 153.369L190.295 154.255L189.801 154.87L189.52 155.156L188.971 155.64L187.068 155.133L184.251 154.447L184.401 154.811L184.319 154.826L184.136 154.765L183.784 154.503L183.329 154.44L183.023 154.218L182.873 153.67L182.825 153.68L183.138 154.822L183.066 154.844L183.024 155.305L182.942 155.669L182.756 156.175L182.534 156.552L182.386 156.725L181.688 157.44L181.147 157.912L180.174 158.9L180.218 158.953L180.079 159.104L179.988 159.177L179.354 159.863L177.62 161.537L177.227 161.951L177.273 161.999L177.174 162.134L176.964 162.272L176.431 162.8L176.463 162.835L176.28 162.984L176.202 163.048L176.083 163.217L176.316 163.383L176.447 163.46L174.94 165.08L174.587 165.366L173.65 166.404L173.122 166.5L172.146 167.373L171.842 167.682L171.608 167.727L171.531 167.826L171.432 167.911L170.792 168.551L170.403 168.94L169.816 169.368L169.302 169.644L168.881 169.832L168.66 169.897L167.287 170.098L167.282 170.072L164.465 170.269H164.147L163.114 170.372L160.738 170.551L158.638 170.705L156.831 170.801L156.608 175.109L156.627 176.201L156.644 176.289L156.859 176.285L157.012 176.336L157.032 176.456L156.908 176.73L156.938 176.839L157.084 176.899L157.279 176.796L157.383 177.811V179.1L157.353 180.016L157.421 181.613L157.501 182.321L157.633 182.797L158.221 184.248L158.683 185.328L159.096 186.503L158.068 186.116L157.281 185.942L153.965 185.155L152.388 184.568L151.83 184.314L150.857 183.769L150.784 183.958L150.657 184.189L150.394 184.845L150.04 185.275L149.453 185.892L144.311 186.135L144.717 187.242L144.964 187.993L143.623 188.064L142.321 188.284L141.849 186.788L141.725 186.451L141.645 186.267L141.532 186.153L141.418 186.071L141.066 185.895L140.672 185.727L140.302 185.634L140.461 184.867L140.461 184.715L140 184.638L139.483 184.513L136.418 183.536L134.986 183.141L134.208 183.044L133.845 182.928L132.23 182.52L132.246 182.327L132.006 182.157L130.869 181.814L129.594 181.455L129.083 181.247L128.496 181.075L128.209 181.013L127.527 180.917L127.518 180.891L126.146 180.685L125.398 180.58L124.758 180.419L123.681 180.281L122.081 180.179L120.863 180.072L120.242 179.9L119.541 179.75L118.483 179.482L118.486 179.305L117.542 179.096L117.593 178.887L117.394 178.863L117.134 178.818L116.857 178.829L115.24 178.562L113.872 178.398L112.944 178.223L112.656 178.105L112.493 177.917L111.24 177.137L111.184 177.055L111.131 177.064L110.914 176.956L109.553 176.053L109.004 175.594L108.795 175.451L108.659 175.386L108.328 175.329L107.761 175.163L106.998 174.886L106.783 174.843L106.66 174.827L106.379 174.831L106.112 174.813L105.899 174.757L105.889 174.769L103.041 173.749L98.3949 172.349L97.3626 171.995L95.9065 171.546L94.9467 171.281L94.9455 171.261L93.9304 170.985L93.4199 170.875L93.6703 172.176L93.5841 172.372L93.5893 172.465L92.4152 175.133L92.3123 175.328L90.827 179.601L90.4006 180.731L89.8488 182.476L89.7533 182.299L89.7201 182.19L89.2248 182.219L88.4534 181.837L88.1858 181.69L88.1231 181.759L88.0439 181.805L87.8049 181.743L87.6739 181.688L87.3954 181.502L87.2978 181.565L87.18 181.561L86.6613 183.868L86.4459 185.463L86.3735 186.41L86.4016 186.771L85.945 186.937L85.4205 186.894L84.6882 186.776L84.2321 186.452L83.7875 186.311L83.2521 185.948L82.0907 185.059L81.8093 184.889L81.5984 184.718L81.4077 184.533L81.1446 184.312L80.6845 183.859L80.0992 183.253L79.5339 182.518L79.2663 182.3L78.7538 182.012L78.2042 181.793L78.3208 181.514L78.3426 181.295L78.288 181.117L78.4862 180.619L78.4822 180.441L78.2605 180.307L78.1083 180.131L78.0382 179.613L78.049 179.485L77.9996 178.955L77.9498 178.722L77.9101 178.613L77.8658 178.607L77.7917 178.545L77.7907 178.146L77.7239 178.139L71.9425 176.963L71.715 176.945L70.4376 177.152L70.3593 177.189L70.2319 177.321L70.0532 177.468L69.9275 177.519L69.7184 177.57L69.6298 177.56L67.8567 176.057L67.8763 176.009L67.8033 175.969L67.5919 175.936L67.2495 175.92L66.586 175.822L66.1018 175.689L65.023 175.201L64.5613 174.939L64.0955 174.714L63.849 174.617L62.1619 174.322L62.1666 174.484L60.7483 174.384L60.453 174.402L60.1905 174.461L59.8741 174.565L59.0762 175.074L58.8677 175.175L58.839 175.214L58.083 175.573L57.9326 175.661L57.6551 175.889L57.1393 176.366L57.1065 176.432L56.9606 176.725L56.705 176.958L56.3265 177.147L56.0737 177.333L56.049 177.304L55.8233 177.368L55.7233 177.425L55.628 177.518L55.5067 177.669L55.428 177.705L55.366 177.702L55.1363 177.638L55.007 177.632L54.8135 177.73L54.7285 177.741L54.4137 177.757L54.3694 177.76L54.3447 177.792L54.2832 177.95L54.2368 177.989L54.0547 178.022L53.9243 177.981L53.8869 177.981L53.7456 177.941L53.5227 177.962L53.3871 177.937L53.2298 177.903L52.9954 177.839L52.7863 177.776L52.359 177.665L52.2969 177.652L52.0506 177.664L52.0166 177.67L51.9816 177.73L51.9247 177.851L51.8799 177.853L51.803 177.815L51.7271 177.769L51.696 177.69L51.6737 177.665L51.4767 177.551L51.4049 177.503L51.3147 177.455L51.1189 177.379L50.9287 177.297L50.6311 177.085L50.5985 177.123L50.5542 177.088L50.3858 177.044L50.2198 176.958L50.0706 176.862L49.9292 176.808L49.5444 176.825L49.4266 176.724L49.2807 176.7L49.129 176.668L49.0555 176.719L49.0072 176.811L48.4662 176.677L48.3886 176.589L48.2301 176.46L48.1554 176.448L47.9417 176.551L47.6539 176.571L47.3351 176.595L47.1565 176.635L46.5734 176.654L46.4408 176.667L46.3742 176.706L45.5235 176.884L45.0835 176.95L44.5102 177.082L44.3552 177.103L43.9759 177.192L43.5284 177.254L43.4332 177.242L43.3383 177.247L43.1638 177.281L43.0029 177.394L42.7817 177.471L42.5054 177.472L42.1494 177.615L41.9741 177.63L41.6887 177.682L41.5255 177.776L41.4239 177.805L41.2223 177.952L40.8471 178.147L40.7161 178.251L40.3611 178.451L40.1791 178.596L39.9063 178.726L39.7545 178.819L39.6122 178.972L39.4163 179.144L39.2944 179.211L39.0792 179.402L38.9545 179.624L38.805 179.752L38.5414 179.756L38.2773 179.879L37.6695 180.19L37.2778 180.35L37.0416 180.472L36.7096 180.642L36.4115 180.852L36.3024 180.956L36.0668 181.225L35.7848 181.456L35.4608 181.739L35.3081 181.829L34.7491 182.107L34.5647 182.185L34.4591 182.202L34.3522 182.195L33.6273 182.231L33.3843 182.258L33.2104 182.277L33.0207 182.325L32.7973 182.403L32.5997 182.492L32.4062 182.58L31.8605 182.871L31.78 182.979L31.7312 183.07L31.6658 183.156L31.4658 182.987L31.4273 182.954L31.2751 182.887L31.1482 182.794L31.0529 182.779L30.9126 182.663L30.7932 182.623L30.6283 182.492L30.5801 182.487L30.4164 182.365L30.3445 182.256L30.1722 182.079L30.0085 181.93L29.8844 181.88L29.7949 181.876L29.7437 181.897L29.5978 181.876L29.5047 181.83L29.4008 181.816L29.3094 181.768L29.3118 181.488L29.1831 181.303L29.3387 181.102L29.7219 181.019L30.8685 180.172L31.0879 179.436L31.9684 179.224L32.2993 179.172L33.3395 178.682L35.7239 178.24L37.2944 177.692L38.5604 177.213L39.3508 176.846L39.7051 176.759L40.8167 176.503L41.0207 176.461L41.3515 176.363L41.8885 176.219L42.5319 176.055L42.8513 175.977L43.1764 175.905L43.0495 175.24L43.0833 174.704L43.212 174.211L42.6651 174.04L42.6163 174.02L42.3809 173.912L42.3153 173.884L42.1315 173.834L42.031 173.789L41.9557 173.736L41.9277 173.692L41.8271 173.488L41.7702 173.453L42.6307 172.742L43.0685 171.434L41.3974 171.679L41.1878 171.691L40.961 171.773L40.5949 171.8L40.4669 171.737L40.2803 171.722L39.8097 171.736L39.5077 171.843L38.4398 171.994L38.3829 172.048L38.1607 172.093L37.1968 172.138L36.7361 172.192L36.5 172.235L35.8216 172.49L35.531 172.471L35.1128 172.495L34.8365 172.577L34.7135 172.665L34.1277 172.832L34.0518 172.851L33.7496 172.899L33.1851 172.913L32.93 172.892L32.8663 172.849L32.7479 172.844L32.7198 172.438L32.9036 172.242L33.0173 172.419L33.1023 172.348L33.2177 172.325L33.2891 172.374L33.2602 172.235L33.1707 171.928L32.9345 171.458H32.9863L32.9272 171.278L32.9013 171.056L32.892 170.923L32.8329 170.736L32.6347 170.61L32.6026 170.546L32.4584 170.472L32.4291 170.345L32.4147 170.11L32.3218 169.762L32.1327 169.241L32.0334 169.131L31.7381 168.779L31.764 168.692L31.5664 168.482L31.4814 168.48L31.4239 168.429L31.1436 168.37L31.0418 168.384L30.8954 168.37L30.8001 168.32L30.788 168.283L30.6347 168.264L30.4635 168.147L30.1975 168.094L30.136 168.007L30.1263 167.943L30.0579 167.845L29.9573 167.741L29.9637 167.566L29.9385 167.502L29.9437 167.404L29.9729 167.34L29.9437 167.24L29.9516 167.113L29.7449 166.922L29.6765 166.818L29.6231 166.741L29.5243 166.712L29.464 166.609L29.3974 166.588L29.3031 166.586L29.2158 166.509L29.2509 166.405L29.1756 166.255L29.1521 166.041L29.1061 165.82L29.1187 165.636L29.0584 165.494L28.8695 165.303L28.8849 165.228L28.7621 165.094L28.6357 165.037L28.5639 164.961L28.4823 164.795L28.4398 164.758L28.4289 164.705L28.3945 164.694L28.3698 164.652L28.356 164.58L28.3135 164.575L28.2554 164.524L28.2364 164.436L28.1927 164.377L28.1997 164.313L28.1629 164.193L28.1004 164.079L28.0641 164.049L28.0555 163.99L27.9528 163.818L27.9348 163.651L27.87 163.441L27.8338 163.112L27.7287 162.966L27.6304 162.863L27.5678 162.864L27.531 162.805L27.2571 162.67L27.1744 162.606L27.0847 162.504L26.8199 162.423L26.3759 162.267L26.5425 161.863L26.7309 160.823L27.3812 160.465L27.9458 159.762L27.901 159.703L28.0061 159.635L28.0532 159.553L28.1469 159.523L28.1854 159.544L28.2364 159.501L28.2566 159.416L28.2967 159.429L28.3451 159.411L28.3732 159.324L28.7127 159.145L28.7764 159.076L28.8246 159.175L28.9809 159.268L29.2015 159.253L29.6041 159.199L30.3107 159.122L30.4916 159.102L30.6501 159.003L31.0005 158.83L31.3055 158.768L31.5003 158.571L31.6968 158.389L31.7794 158.248L31.8053 158.121V157.905L31.8277 157.576L31.9024 157.335L31.9943 157.259L32.5854 157.542L32.6584 157.629L32.7094 157.656L32.7456 157.732L32.8392 157.733L32.8479 157.767L32.9294 157.771L32.9598 157.752L33.042 157.766L33.0897 157.818L33.0811 157.851L33.1357 157.888L33.1373 157.922L33.246 157.953L33.3021 157.921L33.3671 157.915L33.4488 158L33.5389 158.125L33.6055 158.155L33.6262 158.131L33.7008 158.162L33.7267 158.122L33.7859 158.133L33.8336 158.115L33.8812 158.147L33.902 158.193L33.9765 158.191L34.0192 158.297L34.0518 158.334L34.2609 158.406L34.3155 158.32L34.3735 158.293L34.3413 158.154L34.3568 157.963L34.2919 157.883L34.1759 157.811L34.1742 157.397L22.6394 155.364L21.4526 155.991L19.5903 156.559L18.6886 154.436L19.1171 150.629L18.3888 147.957L16.9515 145.864L13.4567 144.339L11.6239 143.607L11.4079 143.337L11.2632 143.254L10.6404 142.884L10 141.685L13.158 139.51L13.3494 139.277L13.4867 136.439L14.2397 135.516L14.8675 134.853L16.6655 133.362L18.2307 130.564L20.502 128.509L22.4062 124.315L22.9203 121.731L22.9323 119.548L23.702 118.356L24.0747 116.605L24.9329 114.319L24.6309 114.195L24.5833 114.184L24.4981 114.179L24.404 114.207L24.1362 114.251L24.0439 114.258L23.9662 114.251L23.8381 114.181L23.7842 114.147L23.6636 114.015L23.5998 113.999L23.5838 113.967L23.5355 113.95L23.5286 113.897L23.4988 113.892L23.4441 113.829L23.3879 113.798L23.3213 113.791L23.2873 113.755L23.13 113.684L23.0558 113.686L22.9266 113.635L22.5848 113.397L22.424 113.205L22.3688 113.165L22.3097 113.068L22.1994 113L22.1799 112.944L22.1402 112.899L22.0977 112.881L22.0156 112.88L21.9753 112.855L21.9225 112.749L21.8611 112.615L21.8312 112.553L21.815 112.511L21.8024 112.484L21.7852 112.444L21.7496 112.175L21.8593 112.172L21.9793 112.153L22.5716 111.985L22.3671 111.547L22.3465 111.395L22.169 111.084L22.4354 111.187L22.687 111.169L22.8495 111.131L23.0926 111.064L23.3711 110.956L23.632 110.821L23.8209 110.686L24.0081 110.511L24.1075 110.412L24.2977 110.219L24.4275 110.029L24.5769 109.798L24.7291 109.522L24.9985 108.997L25.0185 108.893L25.9083 108.165L26.2352 107.936L26.0962 107.732L25.9739 107.6L25.867 107.509L25.7699 107.28L25.7344 107.151L25.6832 107.106L25.6545 106.925L25.6085 106.916L25.5453 106.745L25.4701 106.728L25.3683 106.732L25.2834 106.696L25.0956 106.561L25.0398 106.567L24.9525 106.517L24.7934 106.5L24.671 106.362L24.5465 106.335L24.3994 106.284L24.3236 106.387L24.2994 106.456L24.2581 106.482L24.1714 106.457L24.0961 106.407L23.9456 106.358L23.8909 106.308L23.8595 106.221L23.7451 106.089L23.714 106.027L23.7296 105.95L23.6893 105.879L23.5854 105.763L23.5113 105.753L23.4757 105.77L23.3768 105.778L23.1679 105.693L22.6295 105.559L22.4809 105.537L22.3706 105.478L22.0724 105.467L21.9259 105.512L21.8984 105.485L21.7656 105.448L21.6772 105.473L21.4274 105.373L21.3355 105.325L21.2274 105.265L21.1557 105.218L21.0815 105.176L21.0074 105.119L20.8685 105.093L20.8396 105.07L20.8369 105.023L20.8489 104.985L20.8161 104.971L20.7058 105.011L20.5497 104.92L20.5341 104.868L20.3963 104.873L20.305 104.825L20.2882 104.718L20.1475 104.672L20.135 104.559L20.0619 104.522L19.9763 104.438L19.8449 104.406L19.7421 104.295L19.7162 104.211L19.6507 104.113L19.3739 103.947L19.3215 103.861L19.2962 103.776L19.2911 103.666L19.2096 103.599L19.2681 103.558L19.2383 103.446L19.2159 103.407L19.0809 102.917L18.9837 102.876L18.9126 102.515L18.8126 102.478L18.6989 102.389L18.7333 102.312L18.7718 102.177L18.7161 102.169L18.6633 102.042L18.5236 101.949L18.3461 101.555L18.3554 101.434L18.4548 101.426L18.4892 101.328L18.4151 101.181L18.4932 101.064L18.3979 100.822L18.4042 100.616L18.2044 100.163L18.1394 100.117L18.0998 100.009L17.9844 99.911L17.9791 99.7622L17.9631 99.6881L17.7178 99.2309L17.8557 98.9633L18.3289 98.503L18.3858 98.4274L18.5977 98.25L18.708 98.03L18.8104 97.9197L18.9056 97.7765L18.9987 97.7048L19.1337 97.6448L19.1774 97.6468L19.248 97.6135L19.5818 97.2608L19.6122 96.7845L19.3169 96.3129L19.0011 96.1652L18.8396 96.1246L18.3307 95.912L18.3352 95.8844L17.7069 95.8569L17.3541 95.8682L17.0831 95.8333L16.7683 95.8314L16.2036 95.7719L15.8773 95.8053L15.1668 96.0102L14.9009 96.086L14.6062 96.1154L13.972 96.0492L13.5016 95.9727L12.8042 95.9947L12.4872 95.9601L12.1413 96.1996L11.9518 96.0385L12.1218 95.5006L12.258 95.3406L12.3574 95.287L12.4463 95.1537L12.4556 95.0968L12.6726 94.8344L12.8003 94.7603L12.9232 94.7189L13.0881 94.6206L13.2523 94.4789L13.3051 94.4089L13.4154 94.3639L13.4699 94.3793L13.5371 94.3755L13.6061 94.3518L13.7055 94.3836L13.9393 94.418L13.9415 94.3886L14.1403 94.2973L14.1989 94.3024L14.2708 94.3715L14.3339 94.3581L14.4149 94.257L14.6113 94.1423L14.7969 94.1623L14.9043 94.064L15.0106 94.0814L15.0301 93.9686L15.18 93.9221L15.1893 93.8308L15.2397 93.7965L15.3116 93.7883L15.3098 93.7142L15.346 93.6717L15.4535 93.6596L15.5539 93.5817L15.6625 93.5551L15.9796 93.287L16.0376 93.2035L16.0668 93.0857L16.1226 93.0432L16.3121 92.7101L16.5414 92.5469L16.6487 92.5935L16.6809 92.5022L16.7643 92.3815L16.8147 92.3749L16.8321 92.3046L16.8999 92.2196L16.9009 92.0817L16.9343 91.9743L16.975 91.8972L17.063 91.7958L17.059 91.748L17.0877 91.6418L17.1531 91.5543L17.2284 91.5049L17.2984 91.4199L17.3887 91.3924L17.3944 91.2729L17.5478 91.1949L17.6792 91.0517L17.866 90.9072L17.9366 90.923L17.9775 90.8622L18.0342 90.8394L18.0957 90.7973L18.1589 90.7985L18.2744 90.6712L18.3807 90.6669L18.5024 90.5522L18.5105 90.5159L18.4985 90.4539L18.5438 90.3587L18.7012 90.1754L18.8396 90.1806L19.2452 90.2625L19.3181 90.2937L19.6375 90.8572L20.0947 91.3167L20.0803 90.776L19.9913 90.2338L19.9132 90.0597L19.8057 89.9025L19.6444 89.7527L19.7035 89.5944L19.7662 89.5365L19.8575 89.4871L19.9316 89.3999L19.9793 89.3642L20.0459 89.3675L20.2303 89.4637L20.336 89.4555L20.3681 89.3625L20.34 89.3414L20.3439 89.3148L19.6099 88.8868L19.4794 88.8558L19.4824 88.8083L19.4065 88.8007L18.2469 87.9294L16.8756 87.0868L16.9044 86.7908L16.893 86.4668L16.8406 86.3721L16.9371 86.2235L16.9481 86.1557L16.8367 86.1527L16.7568 86.2605L16.6367 86.0413L16.6534 85.9573L16.6327 85.9379L16.5856 85.9297L16.5459 85.9505L16.5196 85.923L16.5224 85.7763L16.6448 85.5041L16.7637 85.3193L16.7815 85.2007L16.9153 84.8797L16.8861 84.7988L16.7649 84.7418L16.6258 84.72L16.3886 84.5536L16.5098 84.3989L16.4977 84.2323L16.269 84.2364L16.2318 84.1911L16.2565 84.1289L16.3254 84.0789L16.4576 84.0514L16.5402 84.068L16.6908 84.0602L16.8021 84.0171L16.8297 83.9626L16.8119 83.8879L16.8533 83.7626L16.9452 83.6563L17.156 83.356L17.2112 83.1645L17.2128 83.0778L17.1881 83.0169L17.1163 82.9519L17.2416 82.7096L17.2869 82.6768L17.2571 82.6012L17.141 82.5291L17.071 82.2759L17.0928 82.0277L17.1922 81.7343L17.276 81.6005L17.349 81.3552L17.3369 81.226L17.3231 81.0644L17.3944 80.8803L17.3851 80.7214L17.3053 80.7009L17.163 80.7573L17.0515 80.7297L17.0118 80.5864L17.0141 80.4888L17.0474 80.37L17.1687 80.3798L17.195 80.3494L17.1658 80.2668L17.0416 80.099L17.1646 79.9443L17.3272 79.8496L17.3875 79.6636L17.2181 79.5562L17.0377 79.4764L16.9193 79.173L16.955 78.9376L17.0102 78.7044L16.9361 78.6507L16.8631 78.587L16.8268 78.4498L16.9922 77.66L17.0653 77.44L17.1353 77.3297L17.2474 77.2402L17.3824 77.1711L17.4484 77.1102L17.484 76.9862L17.5225 76.7977L17.5891 76.6611L17.7253 76.5621L17.8562 76.2945L17.885 76.1901L17.882 76.077L17.9372 75.8688L17.9923 75.7684L18.1222 75.4197L18.2285 75.0819L18.4404 74.5875L18.3083 74.4652L18.2198 74.3162L18.3382 74.1536L18.3358 74.0957L18.2611 73.9964L18.2364 73.8396L18.2789 73.6507L18.3358 73.2979L18.2652 73.1312L18.2819 73.0238L18.4295 72.674L18.4582 72.5981L18.5507 72.5225L18.5685 72.4575L18.6293 72.415L18.9171 72.0455L19.0442 71.9687L19.1539 71.8211L19.3428 71.6911L19.4244 71.5511L19.4628 71.3001L19.5674 71.168L19.6737 71.1058L19.6927 71.0273L19.7725 70.9722L19.8138 70.9601L19.8828 70.9058L19.8965 70.7947L19.9919 70.6992L19.9603 70.4334L20.0332 70.2419L20.1872 70.026L20.2728 69.9265L20.387 69.8949L20.4647 69.8369L20.5319 69.7484L20.5473 69.4924L20.6352 69.4414L20.7317 69.4606L20.8351 69.2145L20.9092 69.1368L21.1792 69.0804L21.2551 69.0282L21.3187 68.8943V68.8255L21.3849 68.7955L21.5761 68.8507L21.7152 68.7791L21.7978 68.6589L21.8162 68.4729L21.8891 68.4244L22.1603 68.4222L22.2609 68.3832L22.2815 68.2164L22.305 68.1613L22.4882 68.0568L22.5493 67.98L22.571 67.8638L22.6617 67.784L22.8645 67.7909L22.9392 67.7454L22.9886 67.5928L23.4102 67.4619L23.4498 67.3428L23.4005 67.1958L23.4268 67.1102L23.4804 67.0797L23.6073 67.0837L23.6636 67.1242L23.8731 67.1184L23.9306 67.0303L23.9105 66.8926L23.9514 66.7489L23.9059 66.6227L23.7848 66.4176L23.767 66.3527L23.6883 66.1747L23.7354 66.0592L23.683 65.9929L23.5727 65.9556L23.5274 65.9131L23.4458 65.8579L23.4516 65.5284L23.4958 65.3015L23.4723 65.0781L23.4171 64.9883L23.432 64.9056L23.3632 64.8328L23.4941 64.7105L23.497 64.6109L23.4498 64.5875L23.3758 64.5887L23.3602 64.5408L23.3993 64.4305L23.497 64.3961L23.6636 64.1945L23.7709 63.9292L23.7354 63.8614L23.7434 63.7567L23.7709 63.7292L23.8646 63.7372L23.9198 63.6685L23.8152 63.4203L23.8921 63.2966L23.8893 63.2681L23.9255 63.2009L23.9243 63.0576L23.902 62.9813L23.9283 62.7741L23.9099 62.6343L23.934 62.5224L23.9031 62.4565L23.899 62.3655L23.8474 62.2927L23.8261 62.2197L23.679 62.0714L23.6221 61.9646L23.6682 61.8193L23.7498 61.7596L23.7951 61.752L23.8445 61.7187L23.8502 61.6598L23.9146 61.6515L23.937 61.5383L24.015 61.3926L23.9996 61.3099L24.0198 61.2557L24.022 61.191L24.0978 61.1155L24.1328 61.0483L24.2506 60.9444L24.3052 60.9317L24.3431 60.8732L24.404 60.8384L24.4269 60.7895L24.4712 60.7613L24.5246 60.659L24.5665 60.6256L24.8226 60.5021L24.8463 60.4701L24.879 60.4644L24.9112 60.4349L24.9726 60.4253V60.3426L24.9922 60.3068L25.1053 60.2656L25.3294 60.1766L25.3448 60.1471L25.6672 60.0577L25.8516 60.0856L26.1157 60.2235L26.4299 60.4573L26.6011 60.6888L27.4828 61.5596L27.6425 61.7418L28.1497 62.3316L28.4663 62.6315L28.9792 62.9129L29.1084 63.0393L29.2274 63.3397L29.1756 63.5404L29.0503 63.7039L29.0424 63.8389L29.1171 63.9051L29.5634 63.8055L29.6707 63.8069L29.7988 63.8721L29.9712 64.0014L30.1573 64.0468L30.302 64.0579L30.4795 64.2743L31.0608 64.4202L32.1465 64.9699L32.6135 65.0084L33.0833 65.3382L34.4269 67.0337L36.0824 68.1116L35.8877 68.3344L35.864 68.4192L35.9043 68.5091L35.9968 68.5542L36.388 68.586L36.8578 69.0035L38.1158 69.8524L38.9809 71.0966L39.7662 71.4817L40.2475 71.9083L40.3801 72.288L40.5202 72.3019L40.7718 72.3678L41.1671 72.4908L41.8081 72.5396L41.8978 72.6172L42.05 72.6293L43.2074 73.1242L43.4527 73.1887L43.6009 73.2134L43.5618 73.3347L43.8347 73.5292L44.0259 73.6076L44.4252 73.8608L44.6026 73.952L44.5831 74.1796L44.4465 74.4024L44.3178 74.7119L44.1955 75.02L43.8387 75.6822V76.1658L43.4452 76.5121L43.3033 77.0202L43.2276 77.7626L42.5422 78.3431L42.4113 78.8649L42.5164 79.9437L42.6756 80.6153L42.8404 80.8733L42.9558 80.9411L42.9874 80.9823L42.9932 81.0761L43.2379 81.2885L43.4464 81.308L43.5021 81.3493L43.5607 81.3426L43.5756 81.4076L43.9686 81.5568L43.9662 81.5845L43.9145 81.5946L43.8737 81.7146L43.8915 81.8418L43.9352 81.9162L44.1075 81.9239L44.1288 82.0059L44.2063 82.0828L44.2649 82.1368L44.2781 82.2186L44.3809 82.3288L44.4746 82.3508L44.5946 82.3466L44.6423 82.3672L44.6951 82.4166L44.7795 82.5868L44.8313 82.6274L44.8428 82.7228L44.8876 82.7722L45.3764 82.3672H45.6567L46.1162 82.3275L46.6287 82.1549L46.9353 82.2341L47.4156 82.2259L47.878 82.119L48.376 81.8737L48.6839 81.7683L49.0572 81.5598L49.897 81.0416L50.1975 81.1047L50.4651 80.9799L51.3158 81.0117L51.7822 81.0529L52.4836 81.0951L52.6244 81.2358L53.1988 81.3357L53.2942 81.4027H53.695L53.6887 81.2207L53.6634 81.0732L53.6549 80.8847L53.6181 80.497L53.6158 80.254L53.8042 80.3607L53.9289 79.9846L53.799 78.7341L53.8065 78.6871L53.8444 78.6336L53.8869 78.5889L54.0105 78.4998L54.2218 78.3316L54.4791 78.0235L54.6015 77.8201L54.644 77.1942L54.721 76.6646L54.7744 76.2792L54.837 76.1349L54.9214 75.9758L55.1478 76.0419L55.3804 76.2229L55.5608 76.2302L55.5648 76.1508L55.582 76.1388L55.6664 76.1533L55.6555 76.2313L55.8607 76.2424L56.265 76.4795L56.5586 75.8964L56.8279 76.0447L56.9732 75.8948L57.0422 75.8781L57.2242 75.6869L57.3822 75.4606L57.4126 75.2888L57.4247 75.1113L57.535 75.1037L57.6253 75.1785L57.685 75.3165L57.7142 75.2507L57.8073 75.3135L57.8917 75.286L57.8871 74.9706L58.299 74.7855L58.5833 74.533L58.6356 74.4123L58.7092 74.3492L58.758 74.1105L58.793 74.0186L58.6706 73.8057L58.4609 73.2748L58.4289 73.252V73.1462L59.1497 72.6888L59.4834 72.4683L59.4956 72.4224L60.1688 71.9203L60.8776 71.3666L61.1699 71.2364L61.5278 71.01L61.7059 70.8916L61.765 70.8279L61.7788 70.4406L61.8678 70.1421L61.8753 70.0518L61.5663 69.5027L61.4577 69.3523L61.2446 69.0817L61.1389 69.0238L60.792 68.9758L60.036 69.0238L59.5691 68.8002L59.0486 68.6285L58.7902 68.6669L58.1318 68.5445L58.0433 68.2035L58.5742 68.1053L59.6213 68.1632L60.7754 68.2397L61.4853 68.0028L61.8174 67.8207L62.2348 67.4837L62.8444 67.0937L63.4871 66.8243L64.1097 66.5888L64.737 66.3654L65.1736 66.4214L65.4889 66.4766L65.7917 66.4573L66.0749 66.5013L66.6469 66.6836L67.0266 66.6899L67.3954 66.5888L67.8148 66.2623L68.087 66.1786L68.4759 65.9642L68.6459 65.8294L69.2594 65.7132L69.4966 65.6812L69.9838 65.5985L70.1227 65.4669L70.6064 65.2216L70.7224 65.1509L70.7506 65.0244L70.7356 64.8016L70.7781 64.6258L71.02 64.0373L71.5128 63.5001L71.6628 63.3863L71.8551 63.3048L71.969 63.2317L72.2406 62.9344L72.3629 62.7268L72.8938 62.2255L73.0052 62.1681L73.3865 62.065L73.7053 61.9514L74.4291 61.7929L74.7898 61.3264L75.0863 60.8079L75.3068 60.5544L75.5136 60.3091L75.6107 60.2869L75.5895 59.775L74.6864 58.8416L74.6198 58.7613L73.9702 57.8765L73.595 57.9249L73.2895 57.9259L72.7196 58.1328L72.4342 58.1822L71.8632 58.1315L71.3325 58.1251L71.1487 58.0634L70.9649 57.8719L70.9062 57.684L70.8367 57.5078L70.7931 57.2781V57.2147L70.8574 57.0609L71.0746 56.9126L71.4474 56.6955L71.6788 56.5038L71.8644 56.2585L71.9213 56.1026L71.9666 55.826L72.1131 55.4776L72.2091 55.1049L72.3095 54.8987L72.4279 54.6815L72.6244 54.5243L72.8179 54.4426L73.158 54.3542L73.5761 54.1893L73.6899 54.0838L73.795 53.9676L73.8863 53.8322L73.9696 53.7751L74.1207 53.7378L74.4923 53.7219L75.1564 53.5064L75.4235 53.3869L75.5355 53.2532L75.6974 53.1284L75.8249 53.0659L76.2087 53.1284L77.0789 53.1898L77.4661 53.225L78.0795 52.9493L78.4024 52.8706L78.6321 52.4346L78.8837 52.2289L79.0916 52.1956L79.2365 52.144L79.2473 52.0762L80.0152 52.2289L79.7522 52.6206L80.2668 52.7918L80.4633 52.9166L81.1434 53.0973L81.4232 53.2831L81.7035 53.4214L82.2085 53.4985L82.4726 53.4434L82.8598 53.1572L83.2551 52.921L83.938 52.8299L84.3722 52.5131L84.7841 52.183L85.2201 51.8083L85.3837 51.7595L85.4768 51.7298L85.8215 51.5349L86.2368 51.5805L87.5723 51.4717L87.9107 51.1698L88.2524 50.5888L88.5293 50.1172L88.5591 50.0974L88.8378 49.9142L88.9222 49.6171L89.31 49.1149L89.4788 48.7783L89.6138 48.6429L90.3192 48.2176L90.5346 48.1482L90.6145 48.0747L90.9361 47.9454L91.1533 47.7847L91.5375 47.8272L91.7219 47.8025L92.0814 47.7968L92.3698 47.8709L92.5461 47.9353L92.7805 48.0557L92.9712 48.1771L93.1017 48.2522L93.7197 48.4367L94.2476 48.5235L94.6961 48.5803L95.057 48.6453L95.2632 48.7004L95.4681 48.7197L95.7594 48.6928L95.8381 48.6917L95.9749 48.6566L96.0978 48.5704L96.3006 48.4285L96.4832 48.3265L96.655 48.1562L96.6912 48.1471L96.7601 47.9347L96.7837 47.5211L96.8858 47.0914L97.0622 46.7738L97.2689 46.4613L97.2966 46.3985L97.3424 46.1808L97.4993 46.0028L97.5488 45.9085L97.5815 45.7312L97.7365 45.5156L97.8751 45.4059L98.4058 45.2031L98.6224 45.1655L98.8451 45.1916L99.079 45.22L100.485 44.5868L105.044 41.6923L105.036 41.6574L105.058 41.6391L105.049 41.6179L105.122 41.5699L105.098 41.5224L105.438 41.2972L104.8 40.3074L104.658 40.1134L104.603 40.0753L104.427 39.7981L104.419 39.7401L104.26 39.5098L104.192 39.4207L103.977 39.1674L103.739 38.9748L103.527 38.7151L103.122 38.3172L107.167 36.9921L110.311 42.9549L111.738 43.2543L114.913 43.946L115.991 44.1946L116.704 44.5081L117.509 44.9005L117.528 45.0269L117.868 45.1062L118.126 45.2853L118.222 45.2447L118.542 45.2355L118.58 45.2037L118.798 45.2377L118.828 45.1331L118.996 45.1224L119.052 45.1378L120.293 44.7024L119.482 44.3765L119.197 44.1114L119.1 44.0182L118.676 43.3635L118.318 42.5052L118.144 41.8171L118.067 41.4214L118.052 41.0297L118.12 40.6624L118.272 40.1812L118.367 40.0386L118.578 39.8887L119.132 39.644L119.531 39.4895L119.878 39.3987L120.334 39.3304L120.726 39.4102L120.98 39.4058L121.781 39.2426L122.208 39.111L122.75 39.0064L123.301 38.9927L123.745 39.0333L124.302 38.9725L124.542 38.8863L124.818 38.5073L125.018 38.0059L125.172 37.5521L125.196 37.3109L125.208 37.2552L125.248 36.5192L125.236 36.2761L125.143 35.7276L125.136 35.6207L124.898 34.9449L124.054 33.3047L123.893 33.0418L123.528 32.5743L123.199 32.2133L123.705 31.381L123.732 31.2697L124.454 29.9181L125.016 28.6635L125.681 26.8691L125.805 26.8945L125.937 26.9236L126.293 26.9398L126.563 26.996L127.081 27.1414L127.311 27.232L127.577 27.309L127.736 27.3365L128.362 27.4861L128.594 27.5045L128.75 27.4997L128.917 27.3521L129.142 27.2254L129.428 27.1005L129.242 26.9236L128.764 26.5947L128.353 26.37L128.064 26.2454L128.099 25.9913L128.147 25.8778L128.178 25.8553L128.221 25.7006L128.217 25.6644L128.305 25.5422L128.301 25.513L128.614 25.1908L128.276 24.8345L127.765 24.1722L127.579 23.9722L127.622 23.8045L127.715 23.6298L127.917 23.0924L127.949 22.573L128.038 22.3006L127.807 21.0497L127.226 19.4751L127.326 18.5269L126.596 18.409L126.483 17.983L126.128 17.3286L126.142 16.8266L126.107 15.7725L126.038 15.3941L126.293 14.8706L126.572 14.22L126.781 13.596L127.115 13.2584L127.919 12.4611L128.612 11.716L128.824 11.5398L129.145 11.4111L129.436 11.3673L129.746 11.4209L130.055 11.4806L131.271 11.8963L131.282 11.8142L131.482 11.2542L131.688 10.7813L130.938 10.7437L130.934 10.1558L132.405 10.2512L132.217 8.98482L132.708 9.04658L133.272 9.03129L133.628 9.00894L134.189 8.82439L134.659 8.80674L134.718 9.64581L134.653 11.1198L134.26 11.0784L134.038 11.7138L134.453 11.9176L134.957 12.1692L135.734 12.6131L135.943 12.7064L136.46 12.8839L136.909 13.0625L139.024 13.8723L139.153 13.9056L139.369 13.274L139.526 12.77L139.935 11.6567L140.989 11.2282L143.429 10.1923L145.011 9.58376L146.268 9.17143L147.3 8.83836L147.878 8.75498L148.357 8.71631L149.102 8.72675L149.596 8.79336L150.207 8.90071L150.719 9.09658L151.46 9.29098L151.972 9.46141L153.05 10.2255L153.836 10.7297L154.513 11.1651L155.657 11.8551L157.535 12.8981L159.532 13.865L159.695 14.3274L159.826 15.2303L159.849 15.8787L159.704 16.7547L159.591 18.1478L159.727 20.3884L160.031 20.9969L160.575 22.9022L161.001 25.5153L161.028 26.4682L161.026 27.3505L160.995 27.6703L160.976 28.7025L161.011 29.8073L160.99 30.8097L161.035 31.6673L161.058 31.9255L161.056 33.6907L161.044 34.7109L161.04 34.7795L161.083 35.7254L162.505 36.7024L163.34 37.3148L163.798 37.678L164.896 38.467L165.59 38.9345L165.88 39.1746L167.972 40.604L169.166 41.5932L170.409 42.369L170.849 42.7211L171.656 43.2572L172.362 43.7051L172.899 44.0321L172.892 44.0508L173.049 44.3392L173.232 44.4382L173.246 44.4198L173.626 44.6628L174.196 45.1803L174.505 45.3819L174.702 45.4985L176.783 47.2143L178.908 48.6091L179.704 49.3649L180.932 49.8865L180.886 50.168L181.144 50.3131L181.567 50.5729L181.585 50.5578L182.381 51.075L183.116 51.4741L183.461 51.5901L184.239 51.7602L184.933 51.9573L184.847 51.372L184.886 51.0228L184.985 50.3857L185.165 49.712L185.677 48.6072L186.081 47.4456L186.206 46.9668L186.246 46.7243L186.262 46.4522L186.242 46.2591L186.036 45.5243L185.979 45.2428L185.899 44.9414L185.768 44.6667L185.782 44.583L185.829 44.4805L185.87 44.1361L185.927 43.8251L185.906 43.5238L185.903 43.1106L185.729 43.0459L185.78 42.8009L185.812 42.5844L185.854 42.4077L185.77 42.38L185.526 42.2799L185.43 41.8045L185.335 41.0728L185.242 40.7619L185.199 40.5532L185.072 40.0564L185.058 39.5573L184.82 37.8018L184.754 36.8967L184.772 36.3298L184.838 35.6668L185.019 34.6259L184.922 34.3113L184.986 34.3263L186.111 34.5724L186.431 34.6248L186.871 34.6295L190.549 34.974L192.03 35.0078L193.101 35.0833L193.827 35.2269L193.652 35.7513L194.915 36.2172L197.109 37.0742L197.253 37.1246L197.32 37.1362L197.734 37.3175L198.38 37.548L198.878 37.8409L200.45 38.7732L200.674 38.8572L203.62 39.89L203.425 40.6176L204.612 41.3288L204.235 42.6206L203.392 45.0659L202.787 45.4754L202.654 45.5756L202.086 46.6036L201.932 46.9271L201.068 48.5451L200.784 49.2115L200.464 50.0553L200.184 50.8763L199.803 51.8083L200.48 51.9446L201.178 52.1668L201.334 52.2461L202.235 52.909L203.122 53.5226L203.83 53.9646L203.831 54.0055L204.15 54.0735L203.412 56.8708L207.102 57.6174L207.549 58.5542L208.065 59.7199L208.586 59.8819L208.722 60.0283L209.481 60.3499L210.254 60.6526L211.135 60.8969L212.003 61.203L213.205 61.527L213.581 61.6274L214.966 61.9054L215.209 61.2054L216.004 60.7962L216.683 60.5046L217.206 60.2977L217.649 60.181L218.45 60.0812L218.46 60.0253L219.263 60.1718L220.545 60.4431L222.035 60.8038L223.349 61.1191L222.615 63.0447L221.817 65.4128L220.871 68.4641Z" stroke="url(#paint0_linear_2523_1139)" stroke-width="14" stroke-linejoin="round" mask="url(#path-1-outside-1_2523_1139)"/>
<path d="M173.536 53.7273L198.497 132.19H199.455L224.466 53.7273H248.671L213.07 157H184.932L149.281 53.7273H173.536ZM260.697 157V79.5455H282.179V157H260.697ZM271.489 69.5611C268.295 69.5611 265.555 68.5021 263.269 66.3842C261.017 64.2327 259.891 61.661 259.891 58.669C259.891 55.7107 261.017 53.1726 263.269 51.0547C265.555 48.9032 268.295 47.8274 271.489 47.8274C274.682 47.8274 277.405 48.9032 279.658 51.0547C281.944 53.1726 283.087 55.7107 283.087 58.669C283.087 61.661 281.944 64.2327 279.658 66.3842C277.405 68.5021 274.682 69.5611 271.489 69.5611ZM334.685 158.513C326.718 158.513 319.86 156.899 314.111 153.672C308.396 150.411 303.992 145.805 300.9 139.855C297.807 133.871 296.26 126.795 296.26 118.626C296.26 110.658 297.807 103.666 300.9 97.6484C303.992 91.6309 308.346 86.9413 313.96 83.5795C319.608 80.2178 326.23 78.5369 333.828 78.5369C338.938 78.5369 343.695 79.3606 348.099 81.0078C352.536 82.6214 356.402 85.0587 359.697 88.3196C363.025 91.5805 365.613 95.6818 367.462 100.624C369.311 105.532 370.236 111.28 370.236 117.869V123.769H304.833V110.457H350.015C350.015 107.364 349.342 104.624 347.998 102.237C346.653 99.8504 344.787 97.9846 342.4 96.6399C340.047 95.2616 337.307 94.5724 334.181 94.5724C330.92 94.5724 328.029 95.3288 325.508 96.8416C323.02 98.3208 321.07 100.321 319.658 102.842C318.246 105.33 317.523 108.103 317.49 111.163V123.82C317.49 127.652 318.196 130.963 319.608 133.754C321.053 136.544 323.087 138.695 325.709 140.208C328.331 141.721 331.441 142.477 335.038 142.477C337.425 142.477 339.61 142.141 341.594 141.469C343.577 140.796 345.275 139.788 346.687 138.443C348.099 137.098 349.174 135.451 349.914 133.501L369.782 134.812C368.773 139.586 366.706 143.755 363.579 147.318C360.487 150.848 356.486 153.605 351.578 155.588C346.703 157.538 341.073 158.513 334.685 158.513ZM405.736 112.222V157H384.254V79.5455H404.727V93.2109H405.635C407.349 88.7062 410.224 85.1428 414.258 82.5206C418.292 79.8648 423.183 78.5369 428.932 78.5369C434.31 78.5369 439 79.7135 443.001 82.0668C447.001 84.42 450.111 87.7817 452.329 92.152C454.548 96.4886 455.657 101.666 455.657 107.683V157H434.176V111.516C434.21 106.776 432.999 103.078 430.545 100.422C428.091 97.7325 424.713 96.3878 420.41 96.3878C417.519 96.3878 414.964 97.0097 412.745 98.2535C410.56 99.4974 408.845 101.313 407.601 103.7C406.391 106.053 405.769 108.893 405.736 112.222ZM494.07 112.222V157H472.588V79.5455H493.061V93.2109H493.969C495.683 88.7062 498.558 85.1428 502.592 82.5206C506.626 79.8648 511.517 78.5369 517.266 78.5369C522.644 78.5369 527.334 79.7135 531.335 82.0668C535.335 84.42 538.445 87.7817 540.663 92.152C542.882 96.4886 543.991 101.666 543.991 107.683V157H522.51V111.516C522.544 106.776 521.333 103.078 518.879 100.422C516.425 97.7325 513.047 96.3878 508.744 96.3878C505.853 96.3878 503.298 97.0097 501.079 98.2535C498.894 99.4974 497.179 101.313 495.935 103.7C494.725 106.053 494.103 108.893 494.07 112.222ZM583.009 158.462C578.067 158.462 573.663 157.605 569.797 155.891C565.931 154.143 562.872 151.571 560.619 148.175C558.401 144.746 557.291 140.477 557.291 135.367C557.291 131.064 558.081 127.45 559.661 124.526C561.241 121.601 563.393 119.248 566.116 117.466C568.839 115.684 571.932 114.339 575.394 113.432C578.891 112.524 582.555 111.885 586.387 111.516C590.892 111.045 594.523 110.608 597.279 110.205C600.036 109.768 602.036 109.129 603.28 108.288C604.524 107.448 605.146 106.204 605.146 104.557V104.254C605.146 101.061 604.137 98.5897 602.12 96.8416C600.137 95.0935 597.313 94.2195 593.649 94.2195C589.783 94.2195 586.707 95.0767 584.421 96.7912C582.135 98.4721 580.622 100.59 579.882 103.145L560.014 101.531C561.023 96.8248 563.006 92.7571 565.965 89.3281C568.923 85.8655 572.739 83.2097 577.411 81.3608C582.118 79.4782 587.564 78.5369 593.749 78.5369C598.052 78.5369 602.171 79.0412 606.104 80.0497C610.071 81.0582 613.584 82.6214 616.643 84.7393C619.736 86.8572 622.173 89.5803 623.955 92.9084C625.736 96.2029 626.627 100.153 626.627 104.759V157H606.255V146.259H605.65C604.406 148.68 602.742 150.814 600.658 152.663C598.574 154.479 596.069 155.907 593.144 156.95C590.22 157.958 586.841 158.462 583.009 158.462ZM589.161 143.637C592.321 143.637 595.111 143.015 597.531 141.771C599.952 140.494 601.851 138.779 603.23 136.628C604.608 134.476 605.297 132.039 605.297 129.316V121.097C604.625 121.534 603.7 121.937 602.524 122.307C601.381 122.643 600.086 122.962 598.641 123.265C597.195 123.534 595.75 123.786 594.304 124.021C592.859 124.223 591.548 124.408 590.371 124.576C587.85 124.946 585.648 125.534 583.765 126.341C581.883 127.148 580.42 128.24 579.378 129.619C578.336 130.963 577.815 132.644 577.815 134.661C577.815 137.586 578.874 139.821 580.992 141.368C583.143 142.881 585.866 143.637 589.161 143.637Z" fill="#1A1A1A"/>
<path fill-rule="evenodd" clip-rule="evenodd" d="M722.791 106.908C722.791 106.908 728.795 108.72 732.283 110.485C733.493 111.097 735.587 112.319 737.098 113.924C738.577 115.496 739.299 117.088 739.299 117.088L762.961 156.983L724.717 157L706.833 123.416C706.833 123.416 703.171 117.124 700.917 115.3C699.037 113.778 698.236 113.236 696.377 113.236C695.084 113.236 687.291 113.236 687.291 113.236L687.298 156.976L653.456 156.99V45.2603H721.415C721.415 45.2603 752.368 45.8185 752.368 75.2672C752.368 104.716 722.791 106.908 722.791 106.908ZM708.071 69.496L687.583 69.4828L687.573 88.481L708.071 88.4744C708.071 88.4744 717.563 88.4449 717.563 78.8102C717.563 68.9817 708.071 69.496 708.071 69.496Z" fill="url(#paint1_linear_2523_1139)"/>
<defs>
<linearGradient id="paint0_linear_2523_1139" x1="133.77" y1="52.6645" x2="193.267" y2="60.1673" gradientUnits="userSpaceOnUse">
<stop stop-color="#1A1A1A"/>
<stop offset="1" stop-color="#1A1A1A" stop-opacity="0"/>
</linearGradient>
<linearGradient id="paint1_linear_2523_1139" x1="653.456" y1="45.2603" x2="765.173" y2="154.742" gradientUnits="userSpaceOnUse">
<stop stop-color="#276DC3"/>
<stop offset="1" stop-color="#165CAA"/>
</linearGradient>
</defs>
</svg>
